# xmcd CD database file
#
# Track frame offsets:
#	150
#	66699
#	110205
#	164856
#	209485
#
# Disc length: 4370 seconds
#
# Revision: 0
# Processed by: cddbd v1.5.2PL0 Copyright (c) Steve Scherf et al.
# Submitted via: CDex 1.70beta2
#
DISCID=58111005
DTITLE=Marc Ducret - Le sens de la marche
DYEAR=2007
DGENRE=Jazz
TTITLE0=Total machine
TTITLE1=Tapage
TTITLE2=Le menteur dans l'annexe
TTITLE3=Aquatique
TTITLE4=Nouvelles nouvelles du front
EXTD=YEAR: 2007
EXTT0=
EXTT1=
EXTT2=
EXTT3=
EXTT4=
PLAYORDER=
